<?xml version="1.0" encoding="iso-8859-1"?>
<!-- Uploaded to: SVG Repo, www.svgrepo.com, Generator: SVG Repo Mixer Tools -->
<svg height="35px" width="35px" version="1.1" id="Layer_1" xmlns="http://www.w3.org/2000/svg" xmlns:xlink="http://www.w3.org/1999/xlink" 
	 viewBox="0 0 512 512" xml:space="preserve">
<path style="fill:#F4B2B0;" d="M414.1,416.716V352.75v-63.966h42.022v-34.152H152.197v188.423c0,25.252,20.47,45.722,45.722,45.722
	H410.4c25.252,0,45.722-20.47,45.722-45.722v-26.341H414.1V416.716z M304.159,390.417c-19.641,0-35.565-15.922-35.565-35.565
	c0-19.641,15.922-35.565,35.565-35.565c19.643,0,35.565,15.922,35.565,35.565C339.724,374.493,323.8,390.417,304.159,390.417z"/>
<g>
	<path style="fill:#B3404A;" d="M498.144,274.929h-28.166v-20.294c0-7.653-6.203-13.856-13.856-13.856H152.197
		c-7.653,0-13.856,6.203-13.856,13.856v188.422c0,32.85,26.726,59.578,59.578,59.578H410.4c32.85,0,59.578-26.727,59.578-59.578
		v-26.341c0-7.653-6.203-13.856-13.856-13.856h-28.166v-36.254h56.331v24.052c0,7.653,6.203,13.856,13.856,13.856
		c7.653,0,13.856-6.203,13.856-13.856V352.75v-63.966C512,281.133,505.797,274.929,498.144,274.929z M442.266,430.572v12.484
		c0,17.571-14.294,31.865-31.865,31.865H197.917c-17.57,0-31.865-14.294-31.865-31.865V268.49h276.212v6.438h-28.166
		c-7.653,0-13.856,6.203-13.856,13.856v63.966v63.966c0,7.653,6.203,13.856,13.856,13.856H442.266z M427.956,338.894V302.64h28.166
		h28.166v36.254H427.956z"/>
	<path style="fill:#B3404A;" d="M304.159,305.431c-27.251,0-49.421,22.17-49.421,49.421c0,22.44,15.04,41.423,35.565,47.43v23.244
		c0,7.653,6.203,13.856,13.856,13.856c7.653,0,13.856-6.203,13.856-13.856v-23.244c20.525-6.007,35.565-24.988,35.565-47.429
		C353.58,327.601,331.41,305.431,304.159,305.431z M304.159,376.561c-11.97,0-21.709-9.738-21.709-21.709
		c0-11.97,9.738-21.709,21.709-21.709c11.97,0,21.709,9.738,21.709,21.709C325.867,366.822,316.129,376.561,304.159,376.561z"/>
	<path style="fill:#B3404A;" d="M207.844,214.458c-7.653,0-13.856-6.203-13.856-13.856v-80.386
		c0-45.842-37.296-83.138-83.138-83.138s-83.138,37.296-83.138,83.138c0,7.653-6.203,13.856-13.856,13.856S0,127.868,0,120.216
		C0,59.093,49.727,9.365,110.85,9.365S221.7,59.093,221.7,120.216v80.386C221.7,208.254,215.497,214.458,207.844,214.458z"/>
</g>
</svg>